<svg width="63" height="49" viewBox="0 0 63 49" fill="none" xmlns="http://www.w3.org/2000/svg">
<path d="M40.425 0C39.8005 1.12226 39.2439 2.28126 38.7584 3.4707C33.9873 2.71362 29.1274 2.71362 24.3563 3.4707C23.8708 2.28126 23.3142 1.12226 22.6897 0C18.1955 0.770499 13.8265 2.15038 9.70271 4.10174C2.32855 14.7798 -1.01569 27.7434 0.269053 40.6703C5.07468 44.2952 10.4683 47.0598 16.2119 48.8422C17.5198 47.1088 18.687 45.2729 19.7024 43.3522C17.8285 42.659 16.0273 41.7818 14.3252 40.7334C14.792 40.4217 15.2337 40.0736 15.6459 39.6922C20.6095 42.0911 26.048 43.3369 31.5573 43.3369C37.0667 43.3369 42.5052 42.0911 47.4688 39.6922C47.909 40.0708 48.3493 40.4179 48.7895 40.7334C47.0781 41.7735 45.2788 42.6604 43.4123 43.3838C44.3856 45.348 45.5216 47.2267 46.8084 49C52.5449 47.2237 57.9292 44.4584 62.7199 40.8281C64.0355 27.8988 60.6885 14.9246 53.2862 4.2595C49.2088 2.26775 44.8829 0.835084 40.425 0ZM21.1174 33.2872C19.5438 33.1738 18.0752 32.4532 17.0198 31.2766C15.9645 30.1 15.4044 28.5589 15.4572 26.9768C15.3964 25.3927 15.9537 23.8471 17.0107 22.6688C18.0676 21.4904 19.5409 20.7721 21.1174 20.6665C22.6939 20.7721 24.1672 21.4904 25.2242 22.6688C26.2811 23.8471 26.8384 25.3927 26.7776 26.9768C26.8384 28.561 26.2811 30.1065 25.2242 31.2849C24.1672 32.4632 22.6939 33.1816 21.1174 33.2872ZM41.9973 33.2872C40.4237 33.1738 38.955 32.4532 37.8997 31.2766C36.8443 30.1 36.2842 28.5589 36.3371 26.9768C36.2763 25.3927 36.8335 23.8471 37.8905 22.6688C38.9475 21.4904 40.4208 20.7721 41.9973 20.6665C43.5767 20.7642 45.0547 21.4802 46.1133 22.6604C47.1719 23.8405 47.7264 25.3906 47.6575 26.9768C47.7264 28.5631 47.1719 30.1131 46.1133 31.2933C45.0547 32.4735 43.5767 33.1895 41.9973 33.2872Z" fill="black"/>
</svg>
