<svg width="128" height="128" viewBox="0 0 128 128" fill="none" xmlns="http://www.w3.org/2000/svg">
<path d="M92.3732 84.2134L89.5999 90.6667C91.5768 89.7018 93.2311 88.1837 94.3618 86.2967C95.4925 84.4097 96.051 82.235 95.9695 80.0367C95.888 77.8384 95.17 75.7111 93.9026 73.913C92.6353 72.1149 90.8731 70.7235 88.8301 69.9077C86.7871 69.0919 84.5513 68.8868 82.394 69.3174C80.2367 69.7479 78.2508 70.7956 76.6775 72.3331C75.1042 73.8706 74.0112 75.8319 73.5311 77.9787C73.0511 80.1255 73.2047 82.3655 73.9732 84.4267L76.7999 77.6C77.6627 75.5349 79.3106 73.8971 81.381 73.0469C83.4514 72.1967 85.7747 72.2038 87.8399 73.0667C89.9051 73.9295 91.5429 75.5774 92.393 77.6478C93.2432 79.7182 93.2361 82.0415 92.3732 84.1067V84.2134Z" fill="#402CBF"/>
<path d="M10.6666 64C10.6371 77.5556 15.7704 90.6138 25.0232 100.52C34.276 110.427 46.9539 116.439 60.48 117.333L72.2666 88.64C71.7456 87.8561 47.2556 101.402 46.9261 100.52C46.0956 98.5865 69.7733 82.1027 69.8666 80L40.0914 88.64C36.0831 88.64 42.9532 65.798 39.6204 63.5711C36.2876 61.3442 33.6899 58.179 32.156 54.4757C30.6221 50.7725 30.2207 46.6975 31.0027 42.7662C31.7847 38.8348 33.7149 35.2236 36.5493 32.3893C39.3836 29.5549 42.9948 27.6247 46.9261 26.8428C50.8575 26.0608 54.9324 26.4621 58.6357 27.996C62.3389 29.53 65.5042 32.1276 67.7311 35.4604C69.958 38.7933 71.1466 42.7116 71.1466 46.72V47.1467L84.48 65.8667C88.1408 65.7814 91.7028 67.0587 94.4751 69.4509C97.2475 71.8431 99.0327 75.1797 99.4844 78.8135C99.9362 82.4473 99.0223 86.1194 96.92 89.1176C94.8177 92.1157 91.6769 94.2263 88.1066 95.04L79.5733 115.147C89.0135 112.264 97.4687 106.819 103.998 99.4166C110.527 92.0142 114.874 82.9451 116.554 73.2188C118.235 63.4925 117.184 53.4907 113.517 44.3265C109.851 35.1623 103.713 27.1954 95.7873 21.3125C87.8616 15.4296 78.4588 11.8615 68.6256 11.0054C58.7924 10.1493 48.9145 12.0388 40.0914 16.4635C31.2683 20.8882 23.8462 27.6746 18.6512 36.0673C13.4562 44.4599 10.6921 54.1296 10.6666 64Z" fill="#402CBF"/>
<path d="M50.667 33.12C47.9917 33.0883 45.3673 33.8526 43.1274 35.3159C40.8875 36.7791 39.1332 38.8752 38.0873 41.3378C37.0414 43.8005 36.7513 46.5184 37.2537 49.1463C37.7562 51.7742 39.0285 54.1934 40.909 56.0966C42.7896 57.9997 45.1935 59.3008 47.8152 59.8345C50.4369 60.3683 53.1581 60.1105 55.633 59.0941C58.108 58.0777 60.2249 56.3485 61.7147 54.1262C63.2046 51.9039 64.0002 49.2889 64.0003 46.6134C63.9868 43.0665 62.5827 39.6663 60.0897 37.1434C57.5966 34.6204 54.2135 33.1758 50.667 33.12ZM50.667 56.6934C48.6651 56.6828 46.7112 56.0796 45.0518 54.9597C43.3925 53.8399 42.1019 52.2536 41.3431 50.4011C40.5843 48.5485 40.3913 46.5128 40.7883 44.5506C41.1853 42.5885 42.1546 40.7879 43.5738 39.376C44.9931 37.9642 46.7988 37.0044 48.763 36.6177C50.7272 36.231 52.7619 36.4347 54.6104 37.2032C56.4589 37.9718 58.0384 39.2706 59.1495 40.9358C60.2607 42.6011 60.8536 44.5581 60.8537 46.56C60.8538 47.8998 60.5882 49.2262 60.0722 50.4627C59.5563 51.6991 58.8004 52.821 57.8481 53.7633C56.8958 54.7057 55.7661 55.4499 54.5243 55.9528C53.2825 56.4558 51.9534 56.7075 50.6137 56.6934H50.667Z" fill="#402CBF"/>
</svg>
