<svg width="59" height="48" viewBox="0 0 59 48" fill="none" xmlns="http://www.w3.org/2000/svg">
<path d="M52.9385 11.9624C52.9775 12.4887 52.9775 13.0119 52.9775 13.5351C52.9775 29.5482 40.8094 48 18.5718 48C11.7207 48 5.35599 46.0123 0 42.5601C0.972725 42.6713 1.90942 42.7104 2.92118 42.7104C8.36421 42.7236 13.6531 40.9006 17.9354 37.5351C15.4118 37.4894 12.9654 36.6554 10.9379 35.1497C8.91035 33.6439 7.40287 31.5416 6.62594 29.1362C7.3735 29.2475 8.12406 29.3226 8.91065 29.3226C9.99445 29.3226 11.0843 29.1723 12.096 28.9107C9.35726 28.3568 6.89456 26.8699 5.12668 24.7027C3.3588 22.5356 2.39486 19.822 2.39879 17.0234V16.8731C4.01099 17.7722 5.88139 18.3345 7.86286 18.4097C6.20289 17.3049 4.84177 15.8056 3.90093 14.0457C2.96009 12.2859 2.46878 10.3201 2.47084 8.32377C2.47084 6.07443 3.06829 4.01153 4.11607 2.21326C7.15475 5.95721 10.9447 9.02011 15.2404 11.2036C19.5361 13.3871 24.2418 14.6424 29.0527 14.8884C28.8665 13.9862 28.7524 13.051 28.7524 12.1128C28.7517 10.5219 29.0639 8.94642 29.6714 7.47648C30.2788 6.00653 31.1695 4.67092 32.2926 3.54599C33.4157 2.42105 34.7492 1.52886 36.2167 0.920421C37.6843 0.311978 39.2572 -0.000789012 40.8455 1.49474e-06C44.3281 1.49474e-06 47.4714 1.46147 49.6811 3.82508C52.3884 3.30069 54.9846 2.31076 57.3548 0.899136C56.4523 3.69823 54.562 6.07173 52.0378 7.57499C54.439 7.30068 56.7856 6.66819 59 5.69853C57.3462 8.11357 55.2968 10.2313 52.9385 11.9624Z" fill="black"/>
</svg>
